<svg width="59" height="67" viewBox="0 0 59 67" fill="none" xmlns="http://www.w3.org/2000/svg">
<path d="M57.7532 24.5918C56.5186 16.1205 51.0972 8.66019 42.4952 3.58701C30.7532 -3.33833 14.6255 0.0487051 5.77657 11.2946C-2.67061 22.0312 -1.75292 38.1215 7.86993 47.9284C8.7434 48.8213 12.4436 52.4482 16.3576 56.289C20.1058 59.9675 23.983 63.7678 25.0407 64.8378C26.3306 66.1439 27.6427 66.7785 29.0616 66.7785C30.9596 66.7748 32.2975 65.6347 33.1414 64.7751C33.4363 64.4762 34.5751 63.3435 36.1451 61.7902C40.6451 57.3221 48.182 49.847 50.2053 47.6701C56.1979 41.2097 58.951 32.8011 57.7532 24.5918Z" fill="white"/>
<path d="M41.0617 6.02587C30.2742 -0.331279 15.8381 3.08159 7.99903 13.0471C0.46586 22.6216 1.28404 37.177 9.88601 45.9435C12.4327 48.5409 15.0715 51.0499 17.6661 53.5994C20.7988 56.6765 23.9646 59.7241 27.0531 62.8455C28.5089 64.3176 29.6182 64.325 31.1256 62.7901C32.3971 61.4951 33.6833 60.2148 34.9732 58.9419C35.5445 58.3774 35.5445 57.466 34.9732 56.9052L25.8111 47.91C25.6526 47.7551 25.4978 47.6001 25.3393 47.4488L24.5469 46.6703C24.0236 46.1501 23.7398 45.8586 23.2312 45.3273C21.0236 43.025 18.5764 40.8555 16.8148 38.2507C13.3283 33.0927 14.2902 26.0308 18.7165 21.6107C21.8639 18.4671 24.8823 15.5413 28.0813 12.4052C28.4093 12.0805 28.9401 12.0731 29.2791 12.3867C31.0555 14.0323 36.2558 19.2899 38.8393 21.8542C44.3897 27.3701 44.4192 35.9447 38.8835 41.4459C36.7976 43.5194 34.87 45.4085 32.703 47.53C32.2128 48.0096 32.2128 48.7881 32.703 49.2641L37.8369 54.1343C38.4118 54.6804 39.3295 54.673 39.8971 54.1196C42.6944 51.3745 45.4732 48.6074 48.1342 45.7405C58.4425 34.6312 58.5826 16.3567 41.0617 6.02587Z" fill="url(#paint0_linear_346_2439)"/>
<path d="M26.5225 29.2223C25.111 30.6096 25.111 32.8565 26.5225 34.2438C27.9341 35.6311 30.2265 35.6311 31.638 34.2438C33.0496 32.8565 33.0496 30.6096 31.638 29.2223C30.2265 27.835 27.9341 27.835 26.5225 29.2223Z" fill="url(#paint1_linear_346_2439)"/>
<defs>
<linearGradient id="paint0_linear_346_2439" x1="19.929" y1="-3.26819" x2="39.6979" y2="65.7191" gradientUnits="userSpaceOnUse">
<stop stop-color="#FFDE0C"/>
<stop offset="0.51" stop-color="#62B67A"/>
<stop offset="1" stop-color="#09467F"/>
</linearGradient>
<linearGradient id="paint1_linear_346_2439" x1="19.1331" y1="-3.05419" x2="38.9168" y2="65.9959" gradientUnits="userSpaceOnUse">
<stop stop-color="#FFDE0C"/>
<stop offset="0.51" stop-color="#62B67A"/>
<stop offset="1" stop-color="#09467F"/>
</linearGradient>
</defs>
</svg>
